<?xml version="1.0" encoding="utf-8"?>
<svg xmlns="http://www.w3.org/2000/svg" xmlns:xlink="http://www.w3.org/1999/xlink" preserveAspectRatio="none" width="500" height="500" viewBox="-1.000000 -1.000000 2.000000 2.000000">
	<g fill="none" fill-rule="evenodd">

		<path stroke="lightgrey" stroke-width="0.004" d="M-1.000000,1.000000 L1.000000,1.000000 "/>
		<path stroke="lightgrey" stroke-width="0.004" d="M1.000000,-1.000000 L1.000000,1.000000 "/>
		<path stroke="lightgrey" stroke-width="0.004" d="M-1.000000,0.900000 L1.000000,0.900000 "/>
		<path stroke="lightgrey" stroke-width="0.004" d="M0.900000,-1.000000 L0.900000,1.000000 "/>
		<path stroke="lightgrey" stroke-width="0.004" d="M-1.000000,0.800000 L1.000000,0.800000 "/>
		<path stroke="lightgrey" stroke-width="0.004" d="M0.800000,-1.000000 L0.800000,1.000000 "/>
		<path stroke="lightgrey" stroke-width="0.004" d="M-1.000000,0.700000 L1.000000,0.700000 "/>
		<path stroke="lightgrey" stroke-width="0.004" d="M0.700000,-1.000000 L0.700000,1.000000 "/>
		<path stroke="lightgrey" stroke-width="0.004" d="M-1.000000,0.600000 L1.000000,0.600000 "/>
		<path stroke="lightgrey" stroke-width="0.004" d="M0.600000,-1.000000 L0.600000,1.000000 "/>
		<path stroke="lightgrey" stroke-width="0.004" d="M-1.000000,0.500000 L1.000000,0.500000 "/>
		<path stroke="lightgrey" stroke-width="0.004" d="M0.500000,-1.000000 L0.500000,1.000000 "/>
		<path stroke="lightgrey" stroke-width="0.004" d="M-1.000000,0.400000 L1.000000,0.400000 "/>
		<path stroke="lightgrey" stroke-width="0.004" d="M0.400000,-1.000000 L0.400000,1.000000 "/>
		<path stroke="lightgrey" stroke-width="0.004" d="M-1.000000,0.300000 L1.000000,0.300000 "/>
		<path stroke="lightgrey" stroke-width="0.004" d="M0.300000,-1.000000 L0.300000,1.000000 "/>
		<path stroke="lightgrey" stroke-width="0.004" d="M-1.000000,0.200000 L1.000000,0.200000 "/>
		<path stroke="lightgrey" stroke-width="0.004" d="M0.200000,-1.000000 L0.200000,1.000000 "/>
		<path stroke="lightgrey" stroke-width="0.004" d="M-1.000000,0.100000 L1.000000,0.100000 "/>
		<path stroke="lightgrey" stroke-width="0.004" d="M0.100000,-1.000000 L0.100000,1.000000 "/>
		<path stroke="grey" stroke-width="0.004" d="M-1.000000,0.000000 L1.000000,0.000000 "/>
		<path stroke="grey" stroke-width="0.004" d="M0.000000,-1.000000 L0.000000,1.000000 "/>
		<path stroke="lightgrey" stroke-width="0.004" d="M-1.000000,-0.100000 L1.000000,-0.100000 "/>
		<path stroke="lightgrey" stroke-width="0.004" d="M-0.100000,-1.000000 L-0.100000,1.000000 "/>
		<path stroke="lightgrey" stroke-width="0.004" d="M-1.000000,-0.200000 L1.000000,-0.200000 "/>
		<path stroke="lightgrey" stroke-width="0.004" d="M-0.200000,-1.000000 L-0.200000,1.000000 "/>
		<path stroke="lightgrey" stroke-width="0.004" d="M-1.000000,-0.300000 L1.000000,-0.300000 "/>
		<path stroke="lightgrey" stroke-width="0.004" d="M-0.300000,-1.000000 L-0.300000,1.000000 "/>
		<path stroke="lightgrey" stroke-width="0.004" d="M-1.000000,-0.400000 L1.000000,-0.400000 "/>
		<path stroke="lightgrey" stroke-width="0.004" d="M-0.400000,-1.000000 L-0.400000,1.000000 "/>
		<path stroke="lightgrey" stroke-width="0.004" d="M-1.000000,-0.500000 L1.000000,-0.500000 "/>
		<path stroke="lightgrey" stroke-width="0.004" d="M-0.500000,-1.000000 L-0.500000,1.000000 "/>
		<path stroke="lightgrey" stroke-width="0.004" d="M-1.000000,-0.600000 L1.000000,-0.600000 "/>
		<path stroke="lightgrey" stroke-width="0.004" d="M-0.600000,-1.000000 L-0.600000,1.000000 "/>
		<path stroke="lightgrey" stroke-width="0.004" d="M-1.000000,-0.700000 L1.000000,-0.700000 "/>
		<path stroke="lightgrey" stroke-width="0.004" d="M-0.700000,-1.000000 L-0.700000,1.000000 "/>
		<path stroke="lightgrey" stroke-width="0.004" d="M-1.000000,-0.800000 L1.000000,-0.800000 "/>
		<path stroke="lightgrey" stroke-width="0.004" d="M-0.800000,-1.000000 L-0.800000,1.000000 "/>
		<path stroke="lightgrey" stroke-width="0.004" d="M-1.000000,-0.900000 L1.000000,-0.900000 "/>
		<path stroke="lightgrey" stroke-width="0.004" d="M-0.900000,-1.000000 L-0.900000,1.000000 "/>
		<path stroke="lightgrey" stroke-width="0.004" d="M-1.000000,-1.000000 L1.000000,-1.000000 "/>
		<path stroke="lightgrey" stroke-width="0.004" d="M-1.000000,-1.000000 L-1.000000,1.000000 "/>
		<path stroke="red" stroke-width="0.008" d="M0.000000,0.000000 L0.159891,0.012908 L0.312567,0.050797 L0.451219,0.111216 L0.569826,0.190236 L0.663491,0.282687 L0.728716,0.382460 L0.763587,0.482863 L0.767879,0.577024 L0.743053,0.658288 L0.692163,0.720618 L0.619664,0.758951 L0.531150,0.769503 L0.433013,0.750000 L0.332067,0.699817 L0.235147,0.620030 L0.148698,0.513364 L0.078403,0.384045 L0.028846,0.237571 L0.003240,0.080401 L0.003240,-0.080401 L0.028846,-0.237571 L0.078403,-0.384045 L0.148698,-0.513364 L0.235147,-0.620030 L0.332067,-0.699817 L0.433013,-0.750000 L0.531150,-0.769503 L0.619664,-0.758951 L0.692163,-0.720618 L0.743053,-0.658288 L0.767879,-0.577024 L0.763587,-0.482863 L0.728716,-0.382460 L0.663491,-0.282687 L0.569826,-0.190236 L0.451219,-0.111216 L0.312567,-0.050797 L0.159891,-0.012908 L0.000000,-0.000000 L-0.159891,-0.012908 L-0.312567,-0.050797 L-0.451219,-0.111216 L-0.569826,-0.190236 L-0.663491,-0.282687 L-0.728716,-0.382460 L-0.763587,-0.482863 L-0.767879,-0.577024 L-0.743053,-0.658288 L-0.692163,-0.720618 L-0.619664,-0.758951 L-0.531150,-0.769503 L-0.433013,-0.750000 L-0.332067,-0.699817 L-0.235147,-0.620030 L-0.148698,-0.513364 L-0.078403,-0.384045 L-0.028846,-0.237571 L-0.003240,-0.080401 L-0.003240,0.080401 L-0.028846,0.237571 L-0.078403,0.384045 L-0.148698,0.513364 L-0.235147,0.620030 L-0.332067,0.699817 L-0.433013,0.750000 L-0.531150,0.769503 L-0.619664,0.758951 L-0.692163,0.720618 L-0.743053,0.658288 L-0.767879,0.577024 L-0.763587,0.482863 L-0.728716,0.382460 L-0.663491,0.282687 L-0.569826,0.190236 L-0.451219,0.111216 L-0.312567,0.050797 L-0.159891,0.012908 L-0.000000,0.000000 Z"/>
		<path stroke="green" stroke-width="0.008" d="M-1.000000,-0.000000 L-0.920000,-0.124345 L-0.840000,-0.240877 L-0.760000,-0.342274 L-0.680000,-0.422164 L-0.600000,-0.475528 L-0.520000,-0.499013 L-0.440000,-0.491144 L-0.360000,-0.452414 L-0.280000,-0.385257 L-0.200000,-0.293893 L-0.120000,-0.184062 L-0.040000,-0.062667 L0.040000,0.062667 L0.120000,0.184062 L0.200000,0.293893 L0.280000,0.385257 L0.360000,0.452414 L0.440000,0.491144 L0.520000,0.499013 L0.600000,0.475528 L0.680000,0.422164 L0.760000,0.342274 L0.840000,0.240877 L0.920000,0.124345 L1.000000,0.000000 Z"/>

	</g>

</svg>